{
  "extensionsUsed": [
    "KHR_materials_transmission",
    "KHR_materials_clearcoat",
    "KHR_materials_ior",
    "KHR_materials_specular",
    "KHR_materials_emissive_strength",
    "KHR_texture_transform"
  ],
  "accessors": [
    {
      "bufferView": 0,
      "componentType": 5126,
      "count": 18268,
      "type": "VEC3",
      "max": [
        0.035843257,
        0.064249486,
        -0.014634422
      ],
      "min": [
        -0.057659082,
        0.0031132984,
        -0.03114674
      ]
    },
    {
      "bufferView": 1,
      "componentType": 5125,
      "count": 95232,
      "type": "SCALAR",
      "max": [
        18267.0
      ],
      "min": [
        0.0
      ]
    },
    {
      "bufferView": 2,
      "componentType": 5126,
      "count": 18268,
      "type": "VEC3",
      "max": [
        0.9999992,
        1.0,
        1.0
      ],
      "min": [
        -0.9999992,
        -1.0,
        -1.0
      ]
    },
    {
      "bufferView": 3,
      "componentType": 5126,
      "count": 18268,
      "type": "VEC2",
      "max": [
        0.99853516,
        0.99853516
      ],
      "min": [
        0.0,
        0.0
      ]
    }
  ],
  "asset": {
    "version": "2.0"
  },
  "buffers": [
    {
      "uri": "data:application/octet-stream;base64,",
      "byteLength": 219216
    },
    {
      "uri": "data:application/octet-stream;base64,",
      "byteLength": 380928
    },
    {
      "uri": "data:application/octet-stream;base64,",
      "byteLength": 219216
    },
    {
      "uri": "data:application/octet-stream;base64,",
      "byteLength": 146144
    }
  ],
  "bufferViews": [
    {
      "buffer": 0,
      "byteLength": 219216,
      "target": 34962
    },
    {
      "buffer": 1,
      "byteLength": 380928,
      "target": 34963
    },
    {
      "buffer": 2,
      "byteLength": 219216,
      "target": 34962
    },
    {
      "buffer": 3,
      "byteLength": 146144,
      "target": 34962
    }
  ],
  "materials": [
    {
      "name": "/Alcohol",
      "extensions": {
        "KHR_materials_transmission": {
          "transmissionFactor": 0.968628
        },
        "KHR_materials_clearcoat": {},
        "KHR_materials_ior": {
          "ior": 1.35
        },
        "KHR_materials_specular": {
          "specularFactor": 0.5,
          "specularColorFactor": [
            1.0,
            1.0,
            1.0
          ]
        }
      },
      "pbrMetallicRoughness": {
        "baseColorFactor": [
          0.0,
          0.0,
          0.0,
          1.0
        ],
        "metallicFactor": 0.0,
        "roughnessFactor": 0.0
      }
    }
  ],
  "meshes": [
    {
      "primitives": [
        {
          "attributes": {
            "POSITION": 0,
            "NORMAL": 2,
            "TEXCOORD_0": 3
          },
          "indices": 1,
          "material": 0
        }
      ]
    }
  ],
  "nodes": [
    {
      "mesh": 0
    },
    {
      "children": [
        0
      ],
      "name": "Void Liquid"
    }
  ],
  "samplers": [
    {
      "magFilter": 9729,
      "minFilter": 9729
    }
  ],
  "scene": 0,
  "scenes": [
    {
      "nodes": [
        1
      ],
      "extensions": {}
    }
  ],
  "extensions": {}
}