<?xml version="1.0" encoding="UTF-8"?>
<svg id="Logotype" xmlns="http://www.w3.org/2000/svg" viewBox="0 0 925.07 171.18">
  <defs>
    <style>
      .cls-1 {
        fill: #fff;
      }
    </style>
  </defs>
  <path class="cls-1" d="M36.55,129.61c0-1.46,1.09-2.92,3.28-2.92,1.7,0,2.92,1.34,4.49,1.34,2.43,0,4.62-2.43,8.63-12.03l24.54-59.29c.97-2.43,1.22-3.52.61-6.07l-.73-3.16c-.49-2.19.36-3.4,2.31-5.1,1.46-1.34,2.79-2.55,3.65-4.13.73-1.34.97-1.7,1.7-1.7.61,0,.97.49,1.22,1.09l32.56,84.56c1.58,4.13,2.92,5.83,4.74,5.83,1.58,0,2.92-1.34,4.62-1.34,2.07,0,3.16,1.46,3.16,2.92,0,1.7-1.34,3.4-3.64,3.4s-7.17-.61-11.79-.61c-7.05,0-11.91.61-15.43.61-2.31,0-3.65-1.7-3.65-3.4,0-1.46,1.09-2.92,3.16-2.92,1.7,0,3.04,1.34,4.62,1.34,3.77,0,4.74-2.43,2.92-7.17l-6.8-17.74h-36.33l-5.1,12.15c-3.4,8.14-1.82,12.76,2.79,12.76,2.79,0,4.13-1.34,5.83-1.34,2.07,0,3.16,1.46,3.16,2.92,0,1.7-1.34,3.4-3.64,3.4-3.89,0-9.11-.61-12.39-.61-5.59,0-12.39.61-14.82.61s-3.65-1.7-3.65-3.4ZM98.63,97.9l-15.43-40.09-16.65,40.09h32.08Z"/>
  <path class="cls-1" d="M135.55,129.74c0-1.58,1.09-3.04,3.28-3.04,1.58,0,3.28,1.34,5.95,1.34,3.4,0,4.37-1.94,4.37-8.02V53.68c0-6.07-.97-8.02-4.37-8.02-2.67,0-4.37,1.34-5.83,1.34-2.31,0-3.4-1.46-3.4-3.04s1.34-3.28,3.65-3.28c4.62,0,8.26.61,15.92.61h37.42c3.52,0,4.74-.36,7.05-.36,2.19,0,3.28.36,3.28,3.04,0,.61-.12,1.34-.12,2.19,0,6.8,5.1,14.34,5.1,16.89,0,1.58-1.94,2.79-3.77,2.79-1.09,0-2.19-.49-2.43-1.7-2.67-12.03-11.66-17.62-23.93-17.62h-11.66c-4.74,0-6.2,1.34-6.2,5.95v34.75h14.58c8.99,0,11.42-2.43,11.42-6.8,0-2.67-1.34-4.49-1.34-5.95,0-2.19,1.7-3.28,3.4-3.28s3.52,1.22,3.52,3.65c0,4.62-.73,9.36-.73,14.94s.73,10.45.73,15.07c0,2.43-1.82,3.64-3.52,3.64s-3.4-1.09-3.4-3.28c0-1.46,1.34-3.28,1.34-5.95,0-4.37-2.43-6.8-11.42-6.8h-14.58v27.58c0,6.07.97,8.02,4.37,8.02,2.67,0,4.37-1.34,5.95-1.34,2.19,0,3.28,1.46,3.28,3.04s-1.34,3.28-3.65,3.28c-4.62,0-9.48-.61-15.31-.61s-10.69.61-15.31.61c-2.31,0-3.65-1.7-3.65-3.28Z"/>
  <path class="cls-1" d="M234.2,129.74c0-1.58,1.09-3.04,3.28-3.04,1.58,0,3.28,1.34,5.95,1.34,3.4,0,4.37-1.94,4.37-8.02v-63.79c0-8.5-1.34-9.48-9.48-9.48h-4.62c-10.69,0-14.46,6.56-16.4,14.7-.24.97-1.09,1.46-2.19,1.46-1.58,0-3.4-.97-3.4-2.55,0-1.46,3.77-8.02,4.74-16.52.36-3.4.61-4.37,2.55-4.37,2.43,0,4.98,1.82,8.87,1.82h50.54c3.89,0,6.44-1.82,8.87-1.82,1.94,0,2.19.97,2.55,4.37.97,8.5,4.74,15.07,4.74,16.52,0,1.58-1.82,2.55-3.4,2.55-1.09,0-1.94-.48-2.19-1.46-1.94-8.14-5.71-14.7-16.4-14.7h-4.62c-8.14,0-9.48.97-9.48,9.48v63.79c0,6.07.97,8.02,4.37,8.02,2.67,0,4.37-1.34,5.95-1.34,2.19,0,3.28,1.46,3.28,3.04s-1.34,3.28-3.64,3.28c-4.62,0-9.48-.61-15.31-.61s-10.69.61-15.31.61c-2.31,0-3.64-1.7-3.64-3.28Z"/>
  <path class="cls-1" d="M297.01,129.74c0-1.58,1.09-3.04,3.28-3.04,1.58,0,3.28,1.34,5.95,1.34,3.4,0,4.37-1.94,4.37-8.02V53.68c0-6.07-.97-8.02-4.37-8.02-2.67,0-4.37,1.34-5.83,1.34-2.31,0-3.4-1.46-3.4-3.04s1.34-3.28,3.65-3.28c4.62,0,8.26.61,15.92.61h37.42c3.52,0,4.74-.36,7.05-.36,2.19,0,3.28.36,3.28,3.04,0,.61-.12,1.34-.12,2.19,0,6.8,5.1,14.34,5.1,16.89,0,1.58-1.94,2.79-3.77,2.79-1.09,0-2.19-.49-2.43-1.7-2.67-12.03-11.66-17.62-23.93-17.62h-11.66c-4.74,0-6.2,1.34-6.2,5.95v31.35h15.79c8.99,0,11.42-2.43,11.42-6.8,0-2.67-1.34-4.49-1.34-5.95,0-2.19,1.7-3.28,3.4-3.28s3.52,1.22,3.52,3.65c0,4.62-.73,9.36-.73,14.94s.73,10.45.73,15.07c0,2.43-1.82,3.65-3.52,3.65s-3.4-1.09-3.4-3.28c0-1.46,1.34-3.28,1.34-5.95,0-4.37-2.43-6.8-11.42-6.8h-15.79v31.59c0,5.1,1.34,6.56,6.07,6.56h9.48c18.83,0,27.94-4.86,29.89-17.37.24-1.34,1.09-1.82,2.31-1.82,2.19,0,3.64.97,3.64,3.04s-4.74,10.45-5.47,19.8c-.12,1.46-.85,2.06-2.79,2.06-10.08,0-17.5-.48-26.24-.48h-21.99c-6.93,0-10.94.61-15.55.61-2.31,0-3.65-1.7-3.65-3.28Z"/>
  <path class="cls-1" d="M438.18,122.93c-3.77-5.95-8.75-13.61-12.15-18.95-7.29-11.54-13-16.04-16.89-16.04-1.7,0-2.55-1.09-2.55-2.43s.97-2.92,2.55-2.92c2.31,0,5.1,1.58,8.63,1.58,10.69,0,19.8-7.05,19.8-18.1,0-13.61-9.6-19.56-23.93-19.56h-5.59c-4.74,0-6.07,1.34-6.07,6.07v67.43c0,6.07.97,8.02,4.37,8.02,2.67,0,4.37-1.34,5.95-1.34,2.19,0,3.28,1.46,3.28,3.04s-1.34,3.28-3.65,3.28c-4.62,0-9.48-.61-15.31-.61s-10.69.61-15.31.61c-2.31,0-3.65-1.7-3.65-3.28s1.09-3.04,3.28-3.04c1.58,0,3.28,1.34,5.95,1.34,3.4,0,4.37-1.94,4.37-8.02V53.68c0-6.07-.97-8.02-4.37-8.02-2.67,0-4.37,1.34-5.83,1.34-2.31,0-3.4-1.46-3.4-3.04s1.34-3.28,3.65-3.28c4.62,0,8.26.61,15.92.61l19.2-.12c18.23-.12,31.59,9.24,31.59,24.54,0,13-11.66,20.05-25.27,21.51,8.75,4.37,25.64,30.13,29.52,36.69,8.14,13.61,27.58,42.89,45.2,42.89,7.29,0,3.28-13,11.66-13,4.25,0,5.83,3.16,5.83,6.32,0,6.8-7.9,10.57-17.5,10.57-20.9,0-40.1-17.5-59.29-47.75Z"/>
  <path class="cls-1" d="M462.96,129.74c0-1.58,1.09-3.04,3.28-3.04,1.58,0,3.28,1.34,5.95,1.34,3.4,0,4.37-1.94,4.37-8.02V53.68c0-6.07-.97-8.02-4.37-8.02-2.67,0-4.37,1.34-5.95,1.34-2.19,0-3.28-1.46-3.28-3.04s1.34-3.28,3.65-3.28c4.62,0,9.48.61,15.31.61s10.69-.61,15.31-.61c2.31,0,3.65,1.7,3.65,3.28s-1.09,3.04-3.28,3.04c-1.58,0-3.28-1.34-5.95-1.34-3.4,0-4.37,1.94-4.37,8.02v66.34c0,6.07.97,8.02,4.37,8.02,2.67,0,4.37-1.34,5.95-1.34,2.19,0,3.28,1.46,3.28,3.04s-1.34,3.28-3.65,3.28c-4.62,0-9.48-.61-15.31-.61s-10.69.61-15.31.61c-2.31,0-3.65-1.7-3.65-3.28Z"/>
  <path class="cls-1" d="M507.54,129.74c0-1.58,1.09-3.04,3.28-3.04,1.58,0,3.28,1.34,5.95,1.34,3.4,0,4.37-1.94,4.37-8.02V53.68c0-6.07-.97-8.02-4.37-8.02-2.67,0-4.37,1.34-5.95,1.34-2.19,0-3.28-1.46-3.28-3.04s1.34-3.28,3.65-3.28c5.95,0,11.06.61,19.8.61,1.46,0,2.55.85,3.04,1.94l32.93,71.08,34.26-70.1c1.09-2.19,2.19-2.92,4.25-2.92,5.83,0,11.06-.61,15.67-.61,2.31,0,3.65,1.7,3.65,3.28s-1.09,3.04-3.28,3.04c-1.58,0-3.28-1.34-5.95-1.34-3.4,0-4.37,1.94-4.37,8.02v66.34c0,6.07.97,8.02,4.37,8.02,2.67,0,4.37-1.34,5.95-1.34,2.19,0,3.28,1.46,3.28,3.04s-1.34,3.28-3.65,3.28c-4.62,0-9.48-.61-15.31-.61s-10.69.61-15.31.61c-2.31,0-3.65-1.7-3.65-3.28s1.09-3.04,3.28-3.04c1.58,0,3.28,1.34,5.95,1.34,3.4,0,4.37-1.94,4.37-8.02v-62.69l-34.26,69.98c-.85,1.7-1.34,1.94-2.31,1.94-.85,0-1.58-.36-2.31-1.94l-34.51-74.6v67.31c0,6.07.97,8.02,4.37,8.02,2.67,0,4.37-1.34,5.95-1.34,2.19,0,3.28,1.46,3.28,3.04s-1.34,3.28-3.65,3.28c-4.13,0-8.87-.61-13-.61s-8.75.61-12.88.61c-2.31,0-3.65-1.7-3.65-3.28Z"/>
  <path class="cls-1" d="M628.17,129.61c0-1.46,1.09-2.92,3.28-2.92,1.7,0,2.92,1.34,4.49,1.34,2.43,0,4.62-2.43,8.63-12.03l24.54-59.29c.97-2.43,1.22-3.52.61-6.07l-.73-3.16c-.49-2.19.36-3.4,2.31-5.1,1.46-1.34,2.79-2.55,3.65-4.13.73-1.34.97-1.7,1.7-1.7.61,0,.97.49,1.22,1.09l32.56,84.56c1.58,4.13,2.92,5.83,4.74,5.83,1.58,0,2.92-1.34,4.62-1.34,2.07,0,3.16,1.46,3.16,2.92,0,1.7-1.34,3.4-3.64,3.4s-7.17-.61-11.79-.61c-7.05,0-11.91.61-15.43.61-2.31,0-3.65-1.7-3.65-3.4,0-1.46,1.09-2.92,3.16-2.92,1.7,0,3.04,1.34,4.62,1.34,3.77,0,4.74-2.43,2.92-7.17l-6.8-17.74h-36.33l-5.1,12.15c-3.4,8.14-1.82,12.76,2.79,12.76,2.79,0,4.13-1.34,5.83-1.34,2.07,0,3.16,1.46,3.16,2.92,0,1.7-1.34,3.4-3.64,3.4-3.89,0-9.11-.61-12.39-.61-5.59,0-12.39.61-14.82.61s-3.65-1.7-3.65-3.4ZM690.26,97.9l-15.43-40.09-16.65,40.09h32.08Z"/>
  <path class="cls-1" d="M719.04,87.33c0-29.77,22.23-47.87,50.3-47.87,11.3,0,17.38,1.58,23.57,1.58.97,0,1.7-.12,2.79-.12,2.06,0,3.04.61,3.04,3.04,0,.85-.12,1.46-.12,2.31,0,8.38,5.1,14.46,5.1,16.77,0,1.7-1.82,2.79-3.65,2.79-1.22,0-2.31-.49-2.55-1.7-2.67-12.03-12.88-19.2-28.92-19.2-24.18,0-38.03,16.89-38.03,41.19s15.92,42.89,37.3,42.89c14.21,0,22.84-5.1,22.84-12.27v-14.21c0-6.08-.97-8.02-4.37-8.02-2.67,0-4.37,1.34-5.95,1.34-2.19,0-3.28-1.46-3.28-3.04s1.34-3.28,3.65-3.28c4.62,0,9.48.61,15.31.61s10.69-.61,15.31-.61c2.31,0,3.65,1.7,3.65,3.28s-1.09,3.04-3.28,3.04c-1.58,0-3.28-1.34-5.95-1.34-3.4,0-4.37,1.94-4.37,8.02v16.16c0,1.58-.61,2.92-2.55,4.49-5.47,4.37-15.55,11.06-31.71,11.06-28.31,0-48.11-18.71-48.11-46.9Z"/>
  <path class="cls-1" d="M812.83,129.74c0-1.58,1.09-3.04,3.28-3.04,1.58,0,3.28,1.34,5.95,1.34,3.4,0,4.37-1.94,4.37-8.02V53.68c0-6.07-.97-8.02-4.37-8.02-2.67,0-4.37,1.34-5.83,1.34-2.31,0-3.4-1.46-3.4-3.04s1.34-3.28,3.65-3.28c4.62,0,8.26.61,15.92.61h37.42c3.52,0,4.74-.36,7.05-.36,2.19,0,3.28.36,3.28,3.04,0,.61-.12,1.34-.12,2.19,0,6.8,5.1,14.34,5.1,16.89,0,1.58-1.94,2.79-3.77,2.79-1.09,0-2.19-.49-2.43-1.7-2.67-12.03-11.66-17.62-23.93-17.62h-11.66c-4.74,0-6.2,1.34-6.2,5.95v31.35h15.79c8.99,0,11.42-2.43,11.42-6.8,0-2.67-1.34-4.49-1.34-5.95,0-2.19,1.7-3.28,3.4-3.28s3.52,1.22,3.52,3.65c0,4.62-.73,9.36-.73,14.94s.73,10.45.73,15.07c0,2.43-1.82,3.65-3.52,3.65s-3.4-1.09-3.4-3.28c0-1.46,1.34-3.28,1.34-5.95,0-4.37-2.43-6.8-11.42-6.8h-15.79v31.59c0,5.1,1.34,6.56,6.07,6.56h9.48c18.83,0,27.94-4.86,29.89-17.37.24-1.34,1.09-1.82,2.31-1.82,2.19,0,3.64.97,3.64,3.04s-4.74,10.45-5.47,19.8c-.12,1.46-.85,2.06-2.79,2.06-10.08,0-17.5-.48-26.24-.48h-21.99c-6.93,0-10.94.61-15.55.61-2.31,0-3.65-1.7-3.65-3.28Z"/>
</svg>